#!OML:ASF F:\VICON\USERDATA\INSTALL\rory3\rory3.ASF
:FULLY-SPECIFIED
:DEGREES
239
root 0.606036 17.8616 13.2448 -3.87393 2.89603 -1.33626
lowerback 7.57182 -1.66092 -1.56619
upperback 0.399004 -2.22828 3.02328
thorax -3.6517 -1.05951 4.25654
lowerneck -16.7313 -2.99883 -1.38744
upperneck 18.7823 -3.81118 0.117154
head 8.65203 -1.88342 -0.199239
rclavicle -1.18215e-014 1.59028e-015
rhumerus -37.2758 -19.0304 -75.223
rradius 25.7977
rwrist 6.23813
rhand -12.6164 20.3151
rfingers 7.12502
rthumb 13.463 -9.22982
lclavicle -1.18215e-014 1.59028e-015
lhumerus -34.1413 -2.62812 82.3481
lradius 34.0254
lwrist 2.57492
lhand -30.3139 12.957
lfingers 7.12502
lthumb -3.62061 42.906
rfemur -24.3874 2.38286 25.3684
rtibia 32.4452
rfoot -5.52533 -3.53764
rtoes -3.95467
lfemur 8.81182 -4.6383 -20.4518
ltibia 44.9372
lfoot 6.25487 -18.9111
ltoes -33.8213
240
root 0.586255 17.8805 13.4294 -3.98261 2.73323 -1.99458
lowerback 7.66257 -1.58496 -0.833048
upperback 0.486291 -2.06021 3.13327
thorax -3.64775 -0.987803 3.94078
lowerneck -17.0052 -3.06641 -1.22693
upperneck 18.7545 -3.91723 0.00460632
head 8.68639 -1.93264 -0.280775
rclavicle 1.85553e-014 -8.74653e-015
rhumerus -37.3453 -18.6925 -75.4834
rradius 25.9833
rwrist 5.94511
rhand -12.9516 21.3743
rfingers 7.12502
rthumb 13.1398 -8.19165
lclavicle 1.85553e-014 -8.74653e-015
lhumerus -34.2471 -3.07014 82.591
lradius 34.0069
lwrist 3.10488
lhand -29.9769 15.2288
lfingers 7.12502
lthumb -3.29512 45.1831
rfemur -23.5263 2.57737 26.2719
rtibia 32.1983
rfoot -5.79768 -3.59772
rtoes -3.6578
lfemur 7.36345 -4.47342 -19.3926
ltibia 47.4731
lfoot 8.96217 -19.7276
ltoes -26.8769
241
root 0.565124 17.8923 13.6047 -4.06675 2.32921 -2.79765
lowerback 7.79816 -1.41356 0.0423155
upperback 0.538192 -1.74915 3.26325
thorax -3.71482 -0.845521 3.55304
lowerneck -17.0704 -3.11133 -1.20233
upperneck 18.6076 -4.02738 0.208708
head 8.65269 -1.96072 -0.229156
rclavicle 1.8313e-014 -5.80451e-014
rhumerus -37.2069 -18.5421 -75.742
rradius 25.841
rwrist 5.91669
rhand -13.5285 22.2186
rfingers 7.12502
rthumb 12.5837 -7.38239
lclavicle 1.8313e-014 -5.80451e-014
lhumerus -34.2639 -3.55692 82.8196
lradius 33.7263
lwrist 3.43031
lhand -28.959 18.2222
lfingers 7.12502
lthumb -2.31213 48.1894
rfemur -22.5685 2.77093 27.3903
rtibia 31.6323
rfoot -5.97847 -3.59041
rtoes -2.48159
lfemur 5.75067 -4.1482 -18.1769
ltibia 50.0655
lfoot 12.0148 -20.1303
ltoes -13.208
242
root 0.551732 17.9355 13.7733 -4.00459 2.02313 -3.37033
lowerback 7.93504 -1.31066 0.734561
upperback 0.499985 -1.54018 3.40395
thorax -3.85845 -0.750257 3.29231
lowerneck -17.1551 -3.10647 -1.3071
upperneck 18.551 -4.00797 0.289085
head 8.65264 -1.95009 -0.183392
rclavicle -5.43552e-015 1.03368e-014
rhumerus -36.8744 -18.2079 -75.9632
rradius 25.6353
rwrist 5.62674
rhand -13.613 22.4702
rfingers 7.12502
rthumb 12.5023 -7.13583
lclavicle -5.43552e-015 1.03368e-014
lhumerus -34.3195 -3.58717 83.0788
lradius 33.4139
lwrist 3.42464
lhand -27.453 22.0983
lfingers 7.12502
lthumb -0.857592 52.0764
rfemur -21.7641 2.93135 28.1832
rtibia 31.2661
rfoot -6.17404 -3.45041
rtoes -3.40396
lfemur 3.71447 -3.77778 -17.2639
ltibia 52.5442
lfoot 15.3499 -20.749
ltoes -11.4503
243
root 0.541703 17.9929 13.9479 -4.03935 1.92568 -3.87794
lowerback 7.99385 -1.26344 1.40341
upperback 0.499385 -1.41028 3.51264
thorax -3.91238 -0.695769 3.01619
lowerneck -16.8233 -3.13952 -1.45133
upperneck 18.2394 -4.03182 0.361818
head 8.49261 -1.96662 -0.129556
rclavicle 2.60159e-014 -6.36111e-015
rhumerus -36.7057 -17.5742 -76.3149
rradius 25.7452
rwrist 4.88089
rhand -13.4713 22.529
rfingers 7.12502
rthumb 12.6389 -7.06859
lclavicle 2.60159e-014 -6.36111e-015
lhumerus -34.5697 -3.64108 83.3539
lradius 33.3491
lwrist 3.25903
lhand -25.8518 25.9583
lfingers 7.12502
lthumb 0.6889 55.9369
rfemur -20.8464 2.85485 28.8705
rtibia 30.986
rfoot -6.53772 -3.3001
rtoes -3.97546
lfemur 1.26358 -3.29938 -16.465
ltibia 54.9493
lfoot 18.617 -21.3901
ltoes -9.908
